<svg width="29" height="29" fill="none" xmlns="http://www.w3.org/2000/svg"><path d="M16.238 11.62l2.216-2.217a6.25 6.25 0 10.275 9.059l-2.05-2.052h-.328a3.125 3.125 0 11-.113-4.792z" fill="#000"/><path fill-rule="evenodd" clip-rule="evenodd" d="M14.063 0c7.766 0 14.062 6.296 14.062 14.063 0 7.766-6.296 14.062-14.063 14.062C6.296 28.125 0 21.829 0 14.062 0 6.296 6.296 0 14.063 0zm0 3.125C20.102 3.125 25 8.022 25 14.063 25 20.102 20.103 25 14.062 25c-6.04 0-10.937-4.897-10.937-10.938 0-6.04 4.897-10.937 10.938-10.937z" fill="#000"/></svg>