<svg width="206" height="37" fill="none" xmlns="http://www.w3.org/2000/svg"><g clip-path="url(#clip0)" fill="#fff"><path d="M18.485 29.584h3.347V37h-1.44v-.902c0-1.672-.42-2.936-1.26-3.785-.842-.848-2.096-1.27-3.757-1.27H6.343c-1.632 0-2.85.423-3.655 1.27-.805.848-1.207 2.119-1.207 3.813v.903H0v-7.445h2.064A13.747 13.747 0 004.05 26.29a19.58 19.58 0 00.97-3.762c.237-1.44.423-3.028.568-4.766a74.18 74.18 0 00.252-5H2.921v-1.494h18.64v1.493h-3.076v16.824zm-5.332-16.84H7.591c-.132 3.14-.25 5.31-.353 6.514a40.175 40.175 0 01-.387 3.177 24.49 24.49 0 01-1.012 4.337 8.954 8.954 0 01-1.478 2.803h8.792v-16.83zm21.482 16.84v1.452h-10.78v-1.452h2.801v-16.84h-2.801v-1.493h10.78v1.493h-2.647v12.074l7.51-10.082v-2.001H36.85V11.24h10.78v1.494h-2.8v16.84h2.801v1.452h-10.78v-1.452h2.647v-12.27l-7.51 10.123v2.157h2.647zm28.443-16.83h-4.903c0 2.93-.012 5.179-.038 6.749a75.348 75.348 0 01-.157 4.041c-.21 3.059-.67 5.164-1.38 6.316-.71 1.153-1.91 1.728-3.6 1.726a3.822 3.822 0 01-2.744-.979c-.687-.654-1.03-1.57-1.03-2.748a3.13 3.13 0 01.737-2.139 2.522 2.522 0 011.985-.841 2.46 2.46 0 011.831.667 2.283 2.283 0 01.662 1.687 2.365 2.365 0 01-.63 1.763c-.51.45-1.172.69-1.85.668.149.17.345.294.564.352.272.083.554.122.838.118 1.01-.026 1.724-.607 2.14-1.744.416-1.138.688-3.224.816-6.26a91.04 91.04 0 00.098-3.689c.012-1.413.019-3.308.019-5.687h-3.237V11.26h18.02v1.493h-2.802v16.84h2.801v1.452H60.356v-1.452h2.722v-16.84zM86.477 30.41c-.765-.786-1.2-1.976-1.305-3.571a6.556 6.556 0 01-2.373 3.473 6.66 6.66 0 01-4.097 1.27c-1.736 0-3.094-.403-4.065-1.216-.97-.814-1.459-1.973-1.459-3.495 0-1.595.687-2.896 2.061-3.902 1.374-1.006 3.58-1.824 6.618-2.453l2.804-.588v-2.786c0-1.625-.324-2.815-.973-3.572-.65-.756-1.687-1.135-3.114-1.137a5.97 5.97 0 00-1.85.273 4.964 4.964 0 00-1.534.826 3.114 3.114 0 011.749 1.02c.384.534.577 1.184.545 1.843a2.804 2.804 0 01-.76 2.062 2.86 2.86 0 01-2.12.763 2.896 2.896 0 01-2.121-.744 2.785 2.785 0 01-.757-2.081c0-1.595.84-2.936 2.522-4.022 1.68-1.087 3.71-1.63 6.09-1.627 2.673 0 4.619.51 5.837 1.531 1.219 1.021 1.828 2.643 1.828 4.865v10.437c-.031.481.084.96.33 1.373a1.098 1.098 0 00.946.47c.544 0 .959-.366 1.245-1.1.285-.732.43-1.817.431-3.253h1.362c0 2.305-.356 3.966-1.068 4.985-.713 1.02-1.878 1.53-3.495 1.532-1.418 0-2.51-.392-3.278-1.176zM79.2 28.075a2.228 2.228 0 001.768.686 3.034 3.034 0 001.575-.396c.48-.273.878-.672 1.15-1.154.65-1.032.975-2.49.975-4.375V21.19l-2.102.587c-1.404.394-2.415.918-3.035 1.57-.62.652-.935 1.555-.945 2.707.006.89.21 1.563.614 2.02zm27.136 1.509v1.452H95.558v-1.452h2.802v-16.84h-2.802v-1.493h10.778v1.493h-2.644v12.074l7.509-10.082v-2.001h-2.647V11.24h10.78v1.494h-2.795v16.84h2.802v1.452h-10.787v-1.452h2.647v-12.27l-7.509 10.123v2.157h2.644zM113.498.728c.457.525.694 1.208.662 1.906a5.57 5.57 0 01-1.891 4.197c-1.26 1.18-2.876 1.769-4.846 1.767-1.971-.002-3.585-.591-4.844-1.767a5.536 5.536 0 01-1.89-4.197 2.667 2.667 0 01.68-1.906A2.361 2.361 0 01103.178 0a2.331 2.331 0 011.673.591 1.992 1.992 0 01.631 1.528 2.068 2.068 0 01-1.012 1.884c-.674.424-1.557.476-2.647.156a4.724 4.724 0 002.206 1.376 10.51 10.51 0 003.403.508 11.22 11.22 0 003.467-.489 4.68 4.68 0 002.256-1.395c-1.166.339-2.086.314-2.761-.076-.674-.39-1.011-1.044-1.011-1.964a1.998 1.998 0 01.63-1.528c.46-.41 1.06-.622 1.673-.591a2.353 2.353 0 011.812.728zm23.19 30.308h-11.754v-1.452h3.23v-16.84h-1.245c-1.399.051-2.43.47-3.094 1.255-.664.786-.992 1.992-.983 3.62v.864h-1.44V11.26h18.866v7.223h-1.478v-.865c0-1.62-.331-2.823-.992-3.61-.662-.785-1.681-1.203-3.057-1.254h-1.261v16.84h3.193l.015 1.442zm12.337 2.119a.81.81 0 01-.754-.508.829.829 0 01-.062-.314V9.703a.829.829 0 01.504-.76.81.81 0 01.89.179.833.833 0 01.239.582v22.629a.816.816 0 01-.817.823zm50.417-21.647a.866.866 0 01.353-.483 1 1 0 01.889-.054c.121.053.234.121.337.204.113.086.218.181.315.286.095.108.196.216.315.317.114.117.237.223.369.318.153.102.318.184.492.245a2.013 2.013 0 00-.108-.693 4.704 4.704 0 00-.245-.543 7.16 7.16 0 01-.246-.496 1.161 1.161 0 01-.051-.855.912.912 0 01.183-.301.786.786 0 01.293-.207.984.984 0 01.404-.076.94.94 0 01.397.08.742.742 0 01.277.206.896.896 0 01.164.298c.037.117.055.24.053.363.002.175-.036.348-.113.505a8.638 8.638 0 01-.255.48c-.099.175-.182.36-.249.55a1.98 1.98 0 00-.111.673 2.02 2.02 0 00.681-.356 4.4 4.4 0 00.482-.464c.127-.153.268-.292.423-.416a.94.94 0 01.564-.178c.113 0 .226.02.334.057a.995.995 0 01.315.172.784.784 0 01.22.292c.061.133.09.28.085.426a.842.842 0 01-.334.67 1.15 1.15 0 01-.753.245c-.085 0-.419-.051-1.005-.15h-.29a2.061 2.061 0 00-.592.099c.111.189.263.35.444.473.174.12.357.227.548.318.189.09.363.181.517.273.139.079.258.187.35.318.057.087.104.181.139.28.034.102.051.21.05.317 0 .11-.023.218-.066.318a1 1 0 01-.479.515.85.85 0 01-.388.086.757.757 0 01-.428-.124 1.045 1.045 0 01-.315-.299 1.04 1.04 0 01-.205-.432 3.687 3.687 0 01-.095-.572 3.435 3.435 0 00-.12-.635 1.876 1.876 0 00-.289-.585 1.86 1.86 0 00-.316.616 3.335 3.335 0 00-.119.585 7.827 7.827 0 01-.082.53c-.038.177-.11.344-.211.493a1.207 1.207 0 01-.334.29.87.87 0 01-.817.028 1.162 1.162 0 01-.296-.226 1.056 1.056 0 01-.183-.267.96.96 0 01-.066-.317 1.106 1.106 0 01.4-.795 1.62 1.62 0 01.391-.254l.432-.206c.162-.083.317-.178.463-.286.157-.118.297-.258.413-.417a2.035 2.035 0 00-.665-.108 3.692 3.692 0 00-.715.039 2.665 2.665 0 01-.53.076 1.31 1.31 0 01-.397-.051 1.079 1.079 0 01-.35-.178 1.047 1.047 0 01-.252-.296.82.82 0 01-.091-.41.978.978 0 01.069-.31zm-42.122-.232h4.465v1.252h-3.019v5.1h-1.446v-6.352zm9.226 6.352v-.782a2.548 2.548 0 01-2.042.915c-1.194 0-2.243-.686-2.243-1.986 0-1.407 1.087-2.08 2.555-2.08a5.27 5.27 0 011.74.263v-.12c0-.878-.548-1.36-1.551-1.36a4.407 4.407 0 00-1.802.396l-.394-1.15a5.4 5.4 0 012.401-.53c1.86 0 2.767.988 2.767 2.685v3.765l-1.431-.016zm.035-2.66a4.115 4.115 0 00-1.443-.25c-.908 0-1.443.371-1.443 1.01 0 .638.535.937 1.216.937.945 0 1.67-.54 1.67-1.334v-.363zm2.767-.479v-.026a3.292 3.292 0 01.949-2.356 3.252 3.252 0 012.335-.964 3.13 3.13 0 012.521 1.096l-.895.972a2.134 2.134 0 00-1.636-.794c-1.049 0-1.812.915-1.812 2.024v.022c0 1.131.775 2.046 1.891 2.046a2.187 2.187 0 001.635-.794l.87.867a3.164 3.164 0 01-2.578 1.192 3.197 3.197 0 01-2.33-.942 3.244 3.244 0 01-.95-2.343zm8.448-1.961h-2.013v-1.252h5.514v1.252h-2.048v5.1h-1.456l.003-5.1zm4.63-1.252h1.446v1.058a2.54 2.54 0 01.914-.873 2.505 2.505 0 011.219-.318c1.494 0 2.937 1.191 2.937 3.32 0 2.129-1.43 3.298-2.937 3.298a2.551 2.551 0 01-1.204-.292 2.575 2.575 0 01-.929-.826v2.91h-1.446v-8.277zm5.042 3.178c0-1.23-.823-2.034-1.803-2.034s-1.837.817-1.837 2.056c0 1.24.86 2.033 1.837 2.033s1.809-.794 1.809-2.068l-.006.013zm2.606.009a3.4 3.4 0 01.522-1.908 3.366 3.366 0 011.49-1.29 3.336 3.336 0 013.695.678 3.41 3.41 0 01-.473 5.243 3.339 3.339 0 01-1.878.575 3.274 3.274 0 01-2.362-.942 3.33 3.33 0 01-.994-2.356zm5.275 0a1.978 1.978 0 00-.535-1.436 1.938 1.938 0 00-1.397-.61c-1.16 0-1.891.915-1.891 2.046a1.98 1.98 0 00.532 1.431 1.954 1.954 0 001.387.615c1.166 0 1.904-.924 1.904-2.046zm-38.03 9.335h1.447l1.969 2.946 1.979-2.946h1.409v6.355h-1.456v-4.23l-1.982 2.86-1.97-2.827v4.197h-1.408l.012-6.355zm12.476 6.355v-.782a2.541 2.541 0 01-2.039.915c-1.194 0-2.243-.686-2.243-1.986 0-1.407 1.084-2.08 2.552-2.08a5.274 5.274 0 011.743.263v-.12c0-.878-.548-1.36-1.551-1.36a4.38 4.38 0 00-1.802.397l-.394-1.166a5.351 5.351 0 012.398-.531c1.862 0 2.77.988 2.77 2.685v3.765h-1.434zm.038-2.66a4.14 4.14 0 00-1.446-.25c-.905 0-1.444.371-1.444 1.01s.539.937 1.22.937c.945 0 1.67-.54 1.67-1.334v-.363zm3.114-3.695h1.443v1.058a2.507 2.507 0 012.136-1.192c1.491 0 2.937 1.192 2.937 3.321 0 2.129-1.434 3.298-2.937 3.298a2.554 2.554 0 01-2.136-1.118v2.91h-1.443v-8.277zm5.042 3.178c0-1.23-.826-2.034-1.803-2.034s-1.837.817-1.837 2.056.857 2.033 1.837 2.033 1.803-.784 1.803-2.055zm2.959-3.178h1.43v3.044l2.745-3.044h1.689l-2.445 2.67 2.647 3.682h-1.705l-1.91-2.622-1.027 1.093v1.532h-1.431l.007-6.355zm6.371 3.178c0-1.815 1.261-3.308 3.079-3.308 2.004 0 3.019 1.589 3.019 3.416a4.01 4.01 0 01-.025.41h-4.629c.04.452.25.871.588 1.171.338.3.777.459 1.227.443a2.274 2.274 0 001.705-.76l.847.76a3.166 3.166 0 01-2.577 1.191c-1.825.006-3.234-1.331-3.234-3.323zm4.667-.445c-.097-.938-.63-1.672-1.6-1.672-.883 0-1.504.687-1.636 1.672h3.236zm3.996-1.461h-2.029v-1.272h5.515v1.271h-2.03v5.084h-1.456v-5.084z"/></g><defs><clipPath id="clip0"><path fill="#fff" d="M0 0h206v37H0z"/></clipPath></defs></svg>