<svg width="93" height="92" fill="none" xmlns="http://www.w3.org/2000/svg"><path d="M69.5 66.125H25.115a2.875 2.875 0 01-2.828-2.36l-9.596-52.78a2.876 2.876 0 00-2.829-2.36H3.375" stroke="#fff" stroke-width="2" stroke-linecap="round" stroke-linejoin="round"/><path d="M26.375 80.5a7.188 7.188 0 100-14.375 7.188 7.188 0 000 14.375zm43.125 0a7.188 7.188 0 100-14.375 7.188 7.188 0 000 14.375zM14.875 23h62.68a2.874 2.874 0 012.829 3.39l-4.705 25.874a2.875 2.875 0 01-2.828 2.361H20.625" stroke="#fff" stroke-width="2" stroke-linecap="round" stroke-linejoin="round"/></svg>